<?xml version="1.0" encoding="UTF-8"?>
<svg width="55px" height="45px" viewBox="0 0 55 45" version="1.1" xmlns="http://www.w3.org/2000/svg" xmlns:xlink="http://www.w3.org/1999/xlink">
    <title>str-travel-card_3_</title>
    <g id="Page-1" stroke="none" stroke-width="1" fill="none" fill-rule="evenodd">
        <g id="str-travel-card_3_" transform="translate(0.9, 0.5984)" fill="#000000">
            <g id="Shape" transform="translate(0, 11.8016)">
                <path d="M48,0 L43.9,0 C43.2,0 42.6,0.6 42.6,1.3 C42.6,2 43.2,2.6 43.9,2.6 L48,2.6 C49.4,2.6 50.6,3.8 50.6,5.2 L50.6,16 L2.7,16 L2.7,5.2 C2.7,3.8 3.8,2.6 5.3,2.6 L9.4,2.6 C10.1,2.6 10.7,2 10.7,1.3 C10.7,0.6 10.1,0 9.4,0 L5.2,0 C2.3,0 8.8817842e-16,2.3 8.8817842e-16,5.2 L8.8817842e-16,26.7 C8.8817842e-16,29.6 2.3,31.9 5.2,31.9 L48,31.9 C50.9,31.9 53.2,29.6 53.2,26.7 L53.2,5.2 C53.2,2.3 50.9,0 48,0 Z M50.5,18.7 L50.5,21.4 L2.7,21.4 L2.7,18.7 L50.5,18.7 Z M48,29.3 L5.2,29.3 C3.8,29.3 2.6,28.1 2.6,26.7 L2.6,23.9 L50.5,23.9 L50.5,26.7 C50.5,28.2 49.4,29.3 48,29.3 Z"></path>
            </g>
            <path d="M34.1,0.801564313 L30.8,4.10156431 L22.2,2.40156431 C21.2,2.20156431 20.2,2.50156431 19.5,3.20156431 L17.3,5.40156431 C17.1,5.60156431 17,5.80156431 17.1,6.00156431 C17.1,6.20156431 17.3,6.40156431 17.5,6.50156431 L24.8,10.1015643 L20.7,14.2015643 L19.3,13.7015643 C18.3,13.3015643 17.1,13.6015643 16.3,14.4015643 L14.2,16.6015643 C14,16.8015643 14,17.1015643 14,17.3015643 C14.1,17.6015643 14.3,17.8015643 14.5,17.8015643 L19.7,19.2015643 L21.1,24.4015643 C21.2,24.6015643 21.4,24.8015643 21.6,24.9015643 C21.7,24.9015643 21.7,24.9015643 21.8,24.9015643 C22,24.9015643 22.2,24.8015643 22.3,24.7015643 L24.4,22.6015643 C25.2,21.8015643 25.5,20.7015643 25.1,19.6015643 L24.7,18.4015643 L28.8,14.3015643 L32.4,21.6015643 C32.5,21.8015643 32.7,22.0015643 32.9,22.0015643 C32.9,22.0015643 33,22.0015643 33,22.0015643 C33.2,22.0015643 33.4,21.9015643 33.5,21.8015643 L35.7,19.6015643 C36.4,18.9015643 36.7,17.9015643 36.5,16.9015643 L34.8,8.30156431 L38.1,5.00156431 C38.6,4.50156431 38.9,3.70156431 38.9,3.00156431 C38.9,2.20156431 38.6,1.50156431 38.1,1.00156431 C37.1,-0.298435687 35.2,-0.298435687 34.1,0.801564313 Z M34.9,17.1015643 C35,17.5015643 34.9,17.9015643 34.6,18.2015643 L33.4,19.4015643 L30.3,13.0015643 L33.3,10.0015643 L34.9,17.1015643 Z M21.8,4.00156431 C21.4,3.90156431 21,4.10156431 20.7,4.40156431 L19.5,5.60156431 L26.1,8.60156431 L29.2,5.50156431 L21.8,4.00156431 Z M36.5,4.20156431 L23.2,17.5015643 C23,17.7015643 22.9,18.0015643 23,18.2015643 L23.6,19.9015643 C23.8,20.4015643 23.6,21.0015643 23.2,21.4015643 L22.3,22.4015643 L21.2,18.2015643 C21.1,18.0015643 20.9,17.8015643 20.7,17.7015643 L16.6,16.5015643 L17.5,15.6015643 C17.9,15.2015643 18.5,15.1015643 19,15.2015643 L20.7,15.9015643 C21,16.0015643 21.2,15.9015643 21.4,15.7015643 L34.8,2.50156431 C35.3,2.00156431 36.1,1.70156431 36.7,2.30156431 C37,2.60156431 37,2.90156431 37,3.20156431 C37,3.50156431 36.9,3.90156431 36.5,4.20156431 Z" id="Shape-Copy-3"></path>
        </g>
    </g>
</svg>