<?xml version="1.0" encoding="UTF-8"?>
<svg width="1441px" height="562px" viewBox="0 0 1441 562" version="1.1" xmlns="http://www.w3.org/2000/svg" xmlns:xlink="http://www.w3.org/1999/xlink">
    <title>bg</title>
    <defs>
        <polygon id="path-1" points="0.708236953 0.492772204 536.332226 0.492772204 536.332226 267.154022 0.708236953 267.154022"></polygon>
        <polygon id="path-3" points="838.01999 241.003528 1439.70893 241.003528 1439.70893 561.493772 838.01999 561.493772"></polygon>
    </defs>
    <g id="Page-1" stroke="none" stroke-width="1" fill="none" fill-rule="evenodd">
        <g id="Accesos-rápidos-A" transform="translate(0.000000, -3307.000000)">
            <g id="bg" transform="translate(0.182145, 3306.999228)">
                <polygon id="Fill-1" fill="#DEEDF2" opacity="0.200000003" points="0.708236953 561.493772 1439.70893 561.493772 1439.70893 0.493772204 0.708236953 0.493772204"></polygon>
                <mask id="mask-2" fill="white">
                    <use xlink:href="#path-1"></use>
                </mask>
                <g id="Clip-4"></g>
                <path d="M46.9678122,183.120272 C44.8652723,181.017272 42.803704,178.891272 40.7821079,176.740272 C0.0713792149,133.440272 -53.8641655,105.187272 -112.311577,94.5662722 C-212.08529,76.3342722 -278.199377,-19.3837278 -259.981029,-119.227728 C-245.165318,-200.414728 -178.083902,-261.761728 -95.9499393,-269.233728 C-60.5205431,-272.433728 -27.2316603,-287.901728 -2.65073043,-313.633728 C-2.33295111,-313.966728 -2.01517179,-314.295728 -1.69539386,-314.620728 C39.3930725,-356.933728 106.980137,-357.901728 149.263773,-316.784728 C149.680484,-316.379728 150.093197,-315.970728 150.503912,-315.558728 C150.747743,-315.316728 150.988576,-315.074728 151.22741,-314.829728 C162.577528,-303.326728 178.929172,-298.272728 194.785161,-301.368728 C288.410144,-319.695728 385.009061,-290.170728 452.424245,-222.623728 C564.301553,-110.670728 564.301553,71.1692722 452.424245,183.123272 C340.457,295.164272 158.928062,295.164272 46.963815,183.123272" id="Fill-3" fill="#C3DEE7" opacity="0.149999991" mask="url(#mask-2)"></path>
                <mask id="mask-4" fill="white">
                    <use xlink:href="#path-3"></use>
                </mask>
                <g id="Clip-7"></g>
                <path d="M1129.99781,296.011872 C1132.76988,296.253872 1135.52997,296.536872 1138.27606,296.861872 C1193.53768,303.399872 1249.241,291.178872 1297.57244,263.581872 C1380.1331,216.541872 1485.16716,245.381872 1532.17452,327.997872 C1570.40397,395.186872 1559.17777,479.638872 1504.72558,534.489872 C1481.2309,558.134872 1466.65002,589.287872 1464.49452,622.564872 C1464.46654,622.991872 1464.43556,623.420872 1464.39958,623.850872 C1460.37238,678.967872 1412.45766,720.383872 1357.37791,716.354872 C1356.83528,716.314872 1356.29166,716.270872 1355.74904,716.221872 C1355.42926,716.195872 1355.11048,716.165872 1354.7907,716.134872 C1339.72416,714.718872 1324.95042,720.946872 1315.43503,732.722872 C1259.28103,802.284872 1172.2015,839.302872 1083.18432,831.451872 C935.546843,818.528872 826.137822,688.047872 839.055851,540.308872 C851.984873,392.450872 982.241417,283.077872 1129.99481,296.012872" id="Fill-6" fill="#C3DEE7" opacity="0.149999991" mask="url(#mask-4)"></path>
            </g>
        </g>
    </g>
</svg>