<?xml version="1.0" encoding="utf-8"?>
<!-- Generator: Adobe Illustrator 25.0.0, SVG Export Plug-In . SVG Version: 6.00 Build 0)  -->
<svg version="1.1" id="Capa_1" xmlns="http://www.w3.org/2000/svg" xmlns:xlink="http://www.w3.org/1999/xlink" x="0px" y="0px"
	 viewBox="0 0 55 45" style="enable-background:new 0 0 55 45;" xml:space="preserve">
<style type="text/css">
	.st0{fill-rule:evenodd;clip-rule:evenodd;fill:#FFFFFF;}
</style>
<g id="str-travel-card">
	<g id="Group-3" transform="translate(6.000000, 11.000000)">
		<g id="Shape" transform="translate(0.000000, 11.800000)">
			<path class="st0" d="M42.9-10.4h-4.1c-0.7,0-1.3,0.6-1.3,1.3s0.6,1.3,1.3,1.3h4.1c1.4,0,2.6,1.2,2.6,2.6V5.6H-2.4V-5.2
				c0-1.4,1.1-2.6,2.6-2.6h4.1c0.7,0,1.3-0.6,1.3-1.3s-0.6-1.3-1.3-1.3H0.1c-2.9,0-5.2,2.3-5.2,5.2v21.5c0,2.9,2.3,5.2,5.2,5.2h42.8
				c2.9,0,5.2-2.3,5.2-5.2V-5.2C48.1-8.1,45.8-10.4,42.9-10.4z M45.4,8.3v2.7H-2.4V8.3H45.4z M42.9,18.9H0.1c-1.4,0-2.6-1.2-2.6-2.6
				v-2.8h47.9v2.8C45.4,17.8,44.3,18.9,42.9,18.9z"/>
		</g>
		<path id="Shape-Copy-3" class="st0" d="M29-9.6l-3.3,3.3L17.1-8c-1-0.2-2,0.1-2.7,0.8L12.2-5C12-4.8,11.9-4.6,12-4.4
			c0,0.2,0.2,0.4,0.4,0.5l7.3,3.6l-4.1,4.1l-1.4-0.5c-1-0.4-2.2-0.1-3,0.7L9.1,6.2C8.9,6.4,8.9,6.7,8.9,6.9C9,7.2,9.2,7.4,9.4,7.4
			l5.2,1.4l1.4,5.2c0.1,0.2,0.3,0.4,0.5,0.5c0.1,0,0.1,0,0.2,0c0.2,0,0.4-0.1,0.5-0.2l2.1-2.1c0.8-0.8,1.1-1.9,0.7-3L19.6,8l4.1-4.1
			l3.6,7.3c0.1,0.2,0.3,0.4,0.5,0.4c0,0,0.1,0,0.1,0c0.2,0,0.4-0.1,0.5-0.2l2.2-2.2c0.7-0.7,1-1.7,0.8-2.7l-1.7-8.6l3.3-3.3
			c0.5-0.5,0.8-1.3,0.8-2c0-0.8-0.3-1.5-0.8-2C32-10.7,30.1-10.7,29-9.6z M29.8,6.7c0.1,0.4,0,0.8-0.3,1.1L28.3,9l-3.1-6.4l3-3
			L29.8,6.7z M16.7-6.4c-0.4-0.1-0.8,0.1-1.1,0.4l-1.2,1.2L21-1.8l3.1-3.1L16.7-6.4z M31.4-6.2L18.1,7.1c-0.2,0.2-0.3,0.5-0.2,0.7
			l0.6,1.7c0.2,0.5,0,1.1-0.4,1.5l-0.9,1l-1.1-4.2c-0.1-0.2-0.3-0.4-0.5-0.5l-4.1-1.2l0.9-0.9c0.4-0.4,1-0.5,1.5-0.4l1.7,0.7
			c0.3,0.1,0.5,0,0.7-0.2L29.7-7.9c0.5-0.5,1.3-0.8,1.9-0.2c0.3,0.3,0.3,0.6,0.3,0.9C31.9-6.9,31.8-6.5,31.4-6.2z"/>
	</g>
</g>
</svg>
