<?xml version="1.0" encoding="UTF-8"?>
<svg width="54px" height="54px" viewBox="0 0 54 54" version="1.1" xmlns="http://www.w3.org/2000/svg" xmlns:xlink="http://www.w3.org/1999/xlink">
    <!-- Generator: Sketch 60.1 (88133) - https://sketch.com -->
    <title>Combined Shape</title>
    <desc>Created with Sketch.</desc>
    <g id="Iconos-Modyo-Asp" stroke="none" stroke-width="1" fill="none" fill-rule="evenodd">
        <g id="str-error" transform="translate(-6.000000, -6.000000)" fill="#444444">
            <path d="M32.5844157,6 C39.6883117,6 46.3688313,8.76623387 51.392208,13.790909 C61.7610392,24.161039 61.7610392,41.0337662 51.392208,51.4038962 C46.3688313,56.4285713 39.6883117,59.1948052 32.5844157,59.1948052 C25.4805197,59.1948052 18.8000001,56.4285713 13.7766234,51.4038962 C3.40779221,41.0337662 3.40779221,24.161039 13.7766234,13.790909 C18.8000001,8.76623387 25.4805197,6 32.5844157,6 Z M32.5844157,8.65974026 C26.1896104,8.65974026 20.1792209,11.1493508 15.657143,15.6714284 C6.32467536,25.003896 6.32467536,40.1909089 15.657143,49.5233765 C20.1792209,54.0454544 26.1896104,56.5350649 32.5844157,56.5350649 C38.9792209,56.5350649 44.9896105,54.0454544 49.5116884,49.5233768 C58.844156,40.1909092 58.844156,25.0038963 49.5116884,15.6714287 C44.9896105,11.1493508 38.9792209,8.65974026 32.5844157,8.65974026 Z M21.3012991,21.312987 C21.8207793,20.7935064 22.6623379,20.7935064 23.1818184,21.312987 L23.1818184,21.312987 L32.5844157,30.7167207 L41.9870132,21.3129872 C42.5064935,20.7935067 43.348052,20.793507 43.8675326,21.3129872 C44.3870131,21.8324675 44.3870131,22.6740261 43.8675326,23.1935066 L43.8675326,23.1935066 L34.4647728,32.5974026 L43.8675323,42.0012989 C44.3870128,42.5207791 44.3870128,43.3623377 43.8675323,43.8818182 C43.6077922,44.1415586 43.2675324,44.2714287 42.9272726,44.2714287 C42.5870129,44.2714287 42.2467531,44.1415584 41.987013,43.8818182 L41.987013,43.8818182 L32.5844157,34.4780845 L23.1818181,43.8818182 C22.922078,44.1415586 22.5818182,44.2714287 22.2415585,44.2714287 C21.9012987,44.2714287 21.5610389,44.1415584 21.3012988,43.8818182 C20.7818183,43.3623377 20.7818183,42.5207791 21.3012988,42.0012986 L21.3012988,42.0012986 L30.7040586,32.5974026 L21.3012991,23.1935063 C20.7818185,22.6740261 20.7818188,21.8324675 21.3012991,21.312987 Z" id="Combined-Shape"></path>
        </g>
    </g>
</svg>