<svg width="200" height="199" viewBox="0 0 200 199" fill="none" xmlns="http://www.w3.org/2000/svg">
<path fill-rule="evenodd" clip-rule="evenodd" d="M75.0835 164.394C75.8667 164.397 76.6475 164.387 77.4258 164.366C93.0971 163.936 108.161 168.805 120.569 177.821C128.101 183.293 137.417 186.516 147.638 186.549C174.406 186.638 197.115 164.991 198.528 138.036C199.151 126.145 195.492 115.234 188.911 106.746C183.277 99.4798 180.423 90.3241 181.118 80.8882C181.127 80.7667 181.135 80.6452 181.143 80.5241C182.114 64.6319 170.21 51.7863 154.429 51.7038C154.338 51.703 154.248 51.7032 154.158 51.7038C149.9 51.7219 146.024 49.5818 143.826 46.0219C131.29 25.725 108.971 12.3332 82.8798 12.2506C41.1896 12.1189 5.58507 46.105 3.43428 88.0851C1.28223 130.098 33.3603 164.263 75.0835 164.394Z" fill="#EFF6F9"/>
<mask id="mask0_749_33266" style="mask-type:alpha" maskUnits="userSpaceOnUse" x="3" y="12" width="196" height="175">
<path fill-rule="evenodd" clip-rule="evenodd" d="M75.0835 164.394C75.8667 164.397 76.6475 164.387 77.4258 164.366C93.0971 163.936 108.161 168.805 120.569 177.821C128.101 183.293 137.417 186.516 147.638 186.549C174.406 186.638 197.115 164.991 198.528 138.036C199.151 126.145 195.492 115.234 188.911 106.746C183.277 99.4798 180.423 90.3241 181.118 80.8883C181.127 80.7667 181.135 80.6452 181.143 80.5241C188.911 27.4721 150.541 12.4649 82.8798 12.2506C41.1896 12.1189 5.58507 46.1051 3.43428 88.0851C1.28223 130.098 33.3603 164.263 75.0835 164.394Z" fill="#727272"/>
</mask>
<g mask="url(#mask0_749_33266)">
<path d="M124.882 241.996L57.291 231.658C49.7847 230.508 44.6306 223.495 45.7794 215.992L73.3379 36.0472C74.4868 28.545 81.503 23.3935 89.0114 24.5418L156.6 34.8814C164.109 36.0307 169.262 43.0431 168.112 50.5452L140.554 230.491C139.406 237.994 132.389 243.144 124.882 241.996Z" fill="#9E3667"/>
<path d="M162.795 57.5553L137.32 223.897C136.528 229.068 130.098 232.373 124.928 231.582L50.4744 220.192C45.3008 219.401 41.7535 214.57 42.5453 209.398L68.0202 43.0574C68.8123 37.8854 73.6435 34.3322 78.8181 35.1236L153.269 46.5134C158.44 47.3042 163.587 52.3838 162.795 57.5553Z" fill="white"/>
<path fill-rule="evenodd" clip-rule="evenodd" d="M136.039 40.2276C137.29 40.4192 138.459 39.5608 138.65 38.3112C138.842 37.0606 137.983 35.8929 136.733 35.7013C135.483 35.5106 134.314 36.3681 134.122 37.6187C133.931 38.8683 134.788 40.0371 136.039 40.2276ZM102.759 34.0286C103.41 34.1284 104.019 33.6814 104.119 33.0296C104.219 32.3777 103.772 31.769 103.12 31.6691C102.468 31.5694 101.859 32.0166 101.76 32.6684C101.659 33.32 102.107 33.9289 102.759 34.0286ZM99.5423 32.3283C99.4424 32.9791 98.8334 33.4274 98.1823 33.3276C97.5302 33.2266 97.083 32.6189 97.183 31.9671C97.2829 31.3153 97.8921 30.8683 98.543 30.9681C99.1951 31.0678 99.6424 31.6767 99.5423 32.3283ZM112.161 34.9021L123.105 36.5761C123.453 36.6299 123.777 36.3915 123.83 36.044C123.883 35.6965 123.645 35.3722 123.297 35.3193L112.353 33.6451C112.006 33.5924 111.682 33.8298 111.628 34.1774C111.575 34.5247 111.812 34.8493 112.161 34.9021Z" fill="#DEEDF2"/>
<path fill-rule="evenodd" clip-rule="evenodd" d="M124.87 241.958L57.2793 231.62C49.773 230.47 44.6189 223.457 45.7677 215.954L73.3262 36.0091C74.4751 28.5069 81.4913 23.3554 88.9997 24.5037L156.588 34.8433C164.097 35.9926 169.25 43.005 168.1 50.5071L140.543 230.453C139.394 237.956 132.378 243.106 124.87 241.958Z" fill="#9E3667"/>
<path fill-rule="evenodd" clip-rule="evenodd" d="M120.709 241.362L53.1187 231.021C45.6124 229.874 40.4585 222.858 41.6073 215.356L69.1705 35.3731C70.3206 27.8695 77.337 22.7167 84.8444 23.8649L152.434 34.2054C159.941 35.3528 165.096 42.3673 163.946 49.8712L136.382 229.853C135.233 237.357 128.216 242.51 120.709 241.362Z" fill="white"/>
<path fill-rule="evenodd" clip-rule="evenodd" d="M111.463 183.139L136.223 186.926L132.431 211.675L107.671 207.889L111.463 183.139ZM83.042 178.792L107.801 182.578L104.009 207.327L79.2511 203.542L83.042 178.792ZM54.6215 174.443L79.3805 178.23L75.5899 202.979L50.8297 199.193L54.6215 174.443Z" fill="#CEDEE7"/>
<path fill-rule="evenodd" clip-rule="evenodd" d="M136.026 40.1888C137.276 40.3804 138.446 39.522 138.637 38.2724C138.829 37.0218 137.97 35.8541 136.72 35.6625C135.47 35.4718 134.3 36.3293 134.108 37.5799C133.917 38.8295 134.775 39.9983 136.026 40.1888ZM102.747 33.9897C103.398 34.0895 104.007 33.6425 104.107 32.9907C104.207 32.3389 103.76 31.7302 103.108 31.6303C102.456 31.5306 101.847 31.9777 101.748 32.6295C101.647 33.2812 102.095 33.89 102.747 33.9897ZM99.5306 32.2895C99.4307 32.9403 98.8218 33.3885 98.1707 33.2887C97.5185 33.1878 97.0713 32.5801 97.1714 31.9283C97.2712 31.2764 97.8804 30.8295 98.5313 30.9293C99.1834 31.029 99.6307 31.6379 99.5306 32.2895ZM112.149 34.8631L123.093 36.5371C123.441 36.591 123.765 36.3525 123.818 36.005C123.871 35.6575 123.633 35.3332 123.285 35.2803L112.341 33.6061C111.994 33.5534 111.67 33.7908 111.616 34.1384C111.563 34.4857 111.8 34.8103 112.149 34.8631Z" fill="#DEEDF2"/>
<path d="M162.782 57.516L158.728 83.9877L63.9525 69.4898L68.0065 43.0182C68.7986 37.8462 73.6299 34.2925 78.8044 35.0843L153.256 46.4742C158.426 47.265 163.573 52.3443 162.782 57.516Z" fill="#EC0000"/>
<path fill-rule="evenodd" clip-rule="evenodd" d="M150.757 135.685L55.9671 121.142L47.6094 175.822L142.399 190.364L150.757 135.685Z" fill="#9BC3D3"/>
<path fill-rule="evenodd" clip-rule="evenodd" d="M150.812 135.762L56.0235 121.209L63.9258 69.5345L158.714 84.0874L150.812 135.762Z" fill="#DEEDF2"/>
</g>
<path fill-rule="evenodd" clip-rule="evenodd" d="M104.788 146.636C104.715 148.038 103.519 149.115 102.117 149.042L32.9504 145.414C31.5485 145.34 30.4717 144.143 30.5451 142.741L35.2342 53.1878C35.3077 51.7854 36.5035 50.708 37.9055 50.7816L107.072 54.4097C108.474 54.4832 109.551 55.6798 109.478 57.0822L104.788 146.636Z" fill="#CEDEE7"/>
<path fill-rule="evenodd" clip-rule="evenodd" d="M104.954 143.444C104.883 144.799 103.689 145.838 102.288 145.764L33.1208 142.136C31.7189 142.062 30.6401 140.905 30.711 139.55L35.2407 53.0409C35.3116 51.6861 36.5054 50.6475 37.9074 50.721L107.074 54.3492C108.476 54.4227 109.555 55.5805 109.484 56.9353L104.954 143.444Z" fill="#34466B"/>
<path fill-rule="evenodd" clip-rule="evenodd" d="M35.1173 136.81L100.738 140.253L104.951 59.7952L39.3301 56.353L35.1173 136.81Z" fill="white"/>
<path fill-rule="evenodd" clip-rule="evenodd" d="M78.1065 49.9174L89.7831 50.5299C91.8586 50.6388 93.4534 52.4104 93.3447 54.4869L92.9982 61.1048L51.2031 58.9124L51.5496 52.2945C51.6583 50.218 53.4292 48.623 55.5047 48.7318L67.1814 49.3443C68.1214 47.1697 70.339 45.7017 72.8427 45.833C75.3465 45.9643 77.3987 47.6564 78.1065 49.9174Z" fill="#CEDEE7"/>
<path fill-rule="evenodd" clip-rule="evenodd" d="M51.2022 58.9126L92.9973 61.105L93.2385 56.4987L51.4434 54.3064L51.2022 58.9126Z" fill="#9BC3D3"/>
<path fill-rule="evenodd" clip-rule="evenodd" d="M74.4152 49.9696C74.3635 50.9556 73.5228 51.7132 72.5369 51.6615C71.5514 51.6098 70.7943 50.7684 70.846 49.7823C70.8976 48.7963 71.7384 48.0387 72.7239 48.0904C73.7098 48.1421 74.4668 48.9835 74.4152 49.9696Z" fill="#EC0000"/>
<path fill-rule="evenodd" clip-rule="evenodd" d="M47.2566 103.603C46.7946 112.427 53.5736 119.956 62.398 120.419L74.4 121.049C83.2245 121.512 90.7526 114.733 91.2147 105.909L91.8441 93.8882C92.3062 85.0637 85.5271 77.5348 76.7027 77.0719L64.7007 76.4424C55.8763 75.9795 48.3481 82.7579 47.886 91.5824L47.2566 103.603Z" fill="#DEEDF2"/>
<path fill-rule="evenodd" clip-rule="evenodd" d="M96.4948 84.625L63.372 114.526L45.7816 94.9488L52.5315 88.8788L64.0426 101.69L90.4141 77.8835L96.4948 84.625Z" fill="#008035"/>
<path d="M51.3262 151.9L52.1757 146.421L102.078 149.023L51.3262 151.9Z" fill="#34466B"/>
<path fill-rule="evenodd" clip-rule="evenodd" d="M143.1 107.645C141.968 115.04 135.051 120.117 127.653 118.985C120.254 117.853 115.174 110.941 116.306 103.547C117.44 96.1525 124.355 91.0752 131.755 92.2072C139.153 93.3384 144.232 100.251 143.1 107.645Z" fill="#CEDEE7"/>
<path fill-rule="evenodd" clip-rule="evenodd" d="M135.99 157.732C134.858 165.127 127.942 170.204 120.543 169.072C113.145 167.94 108.065 161.028 109.196 153.634C110.33 146.239 117.246 141.162 124.646 142.294C132.044 143.425 137.123 150.338 135.99 157.732Z" fill="#DEEDF2"/>
<path fill-rule="evenodd" clip-rule="evenodd" d="M97.4608 181.099C96.7981 181.107 96.1354 181.108 95.4727 181.101L95.3411 181.099L95.3495 180.414C95.9617 180.422 96.5754 180.423 97.1891 180.417L97.4524 180.414C97.4547 180.642 97.4577 180.871 97.4608 181.099ZM101.693 180.941C101.031 180.982 100.369 181.016 99.7059 181.042L99.5774 181.047L99.5514 180.362C100.231 180.336 100.911 180.303 101.591 180.261L101.65 180.258C101.664 180.486 101.679 180.713 101.693 180.941ZM91.2365 180.263C91.8732 180.302 92.5106 180.333 93.148 180.359L93.2429 180.362L93.2169 181.047C92.542 181.021 91.8678 180.987 91.1944 180.947L91.1018 180.941L91.1447 180.257C91.1753 180.259 91.2059 180.261 91.2365 180.263ZM105.913 180.571C105.253 180.645 104.592 180.712 103.931 180.771L103.805 180.783L103.745 180.1C104.415 180.041 105.085 179.974 105.755 179.899L105.836 179.89C105.861 180.117 105.887 180.344 105.913 180.571ZM87.0722 179.902C87.6997 179.972 88.3287 180.035 88.9577 180.092L89.0495 180.1L88.9891 180.782C88.3233 180.723 87.6591 180.657 86.996 180.583L86.882 180.57L86.9586 179.889C86.9965 179.894 87.0347 179.898 87.0722 179.902ZM110.109 179.988C109.439 180.098 108.768 180.2 108.095 180.295L108.015 180.306L107.921 179.627C108.609 179.531 109.295 179.427 109.981 179.315C109.981 179.315 110.065 179.719 110.109 179.988ZM82.8462 179.319C83.5052 179.427 84.1652 179.527 84.8264 179.62L84.8743 179.626L84.7801 180.305C84.1375 180.216 83.4982 180.118 82.8594 180.015L82.6857 179.986L82.7974 179.311C82.8137 179.313 82.83 179.316 82.8462 179.319ZM114.27 179.192C113.58 179.342 112.888 179.483 112.196 179.616L112.066 178.944C112.716 178.82 113.366 178.686 114.014 178.547L114.124 178.523C114.173 178.746 114.221 178.969 114.27 179.192ZM78.6909 178.526C79.3382 178.666 79.9869 178.799 80.6372 178.925L80.7291 178.942L80.6001 179.615C79.9129 179.483 79.2284 179.343 78.5453 179.195L78.6708 178.521C78.6775 178.523 78.6842 178.524 78.6909 178.526ZM74.6118 177.529C75.2465 177.701 75.8831 177.865 76.5215 178.023L76.6239 178.048L76.4608 178.713C75.7832 178.547 75.1066 178.372 74.4322 178.19L74.5897 177.523C74.5971 177.525 74.6044 177.527 74.6118 177.529ZM118.385 178.185C117.708 178.369 117.028 178.544 116.347 178.712L116.171 178.05C116.815 177.893 117.456 177.727 118.095 177.554L118.206 177.524C118.266 177.745 118.325 177.965 118.385 178.185ZM122.444 176.97C121.811 177.178 121.176 177.376 120.537 177.569L120.422 177.604L120.225 176.948C120.889 176.749 121.551 176.541 122.211 176.326C122.211 176.326 122.359 176.712 122.444 176.97ZM70.6144 176.333C71.2357 176.536 71.8593 176.732 72.485 176.92L72.5696 176.946L72.3728 177.602C71.7533 177.416 71.1349 177.222 70.5189 177.022L70.3516 176.968L70.5648 176.317C70.5813 176.322 70.5979 176.328 70.6144 176.333ZM126.434 175.549C125.838 175.779 125.239 176.001 124.638 176.217L124.448 176.285L124.218 175.64C124.816 175.427 125.413 175.206 126.006 174.98L126.189 174.91C126.27 175.123 126.352 175.336 126.434 175.549ZM66.7042 174.945C67.3114 175.177 67.9209 175.403 68.5331 175.622L68.5767 175.637L68.3471 176.283C68.2165 176.236 68.086 176.189 67.9556 176.142C67.4935 175.975 67.0328 175.803 66.5735 175.628L66.3608 175.547L66.6066 174.907C66.6392 174.92 66.6717 174.932 66.7042 174.945ZM62.7761 173.32C63.3676 173.583 63.962 173.838 64.5592 174.087L64.6562 174.128L64.3935 174.76C63.7578 174.496 63.1265 174.225 62.4981 173.946L62.4474 173.924L62.7259 173.298C62.7425 173.305 62.7593 173.313 62.7761 173.32ZM130.348 173.927C129.708 174.212 129.063 174.488 128.415 174.757L128.139 174.13C128.294 174.066 128.448 174.002 128.601 173.937C129.085 173.732 129.568 173.524 130.048 173.31C130.048 173.31 130.238 173.679 130.348 173.927ZM134.173 172.107C133.596 172.399 133.016 172.685 132.432 172.965L132.272 173.041L131.978 172.423C132.539 172.156 133.099 171.881 133.656 171.601L133.864 171.496C133.967 171.7 134.07 171.903 134.173 172.107ZM58.9523 171.503C59.5633 171.812 60.1779 172.115 60.7961 172.409L60.5233 173.038C60.3692 172.965 60.2155 172.891 60.0619 172.817C59.5867 172.587 59.1136 172.352 58.6425 172.114L58.932 171.493C58.9387 171.496 58.9455 171.5 58.9523 171.503ZM137.902 170.095C137.347 170.412 136.789 170.723 136.227 171.029L136.05 171.125L135.725 170.522C135.854 170.452 135.983 170.382 136.113 170.311C136.536 170.08 136.956 169.845 137.375 169.607L137.561 169.501C137.675 169.699 137.788 169.897 137.902 170.095ZM55.2389 169.5C55.8315 169.839 56.428 170.171 57.0284 170.496L57.0705 170.518L56.7453 171.121C56.5884 171.036 56.432 170.951 56.2757 170.866C55.8143 170.612 55.3553 170.355 54.8984 170.094C54.8984 170.094 55.1968 169.475 55.2389 169.5ZM141.523 167.897C140.988 168.24 140.45 168.577 139.908 168.908L139.726 169.019L139.371 168.433C139.911 168.105 140.446 167.772 140.978 167.432L141.152 167.32C141.276 167.512 141.4 167.705 141.523 167.897ZM51.7432 167.38C52.2831 167.726 52.8268 168.065 53.3741 168.399L53.425 168.429L53.0696 169.015C52.5355 168.691 52.0038 168.359 51.4758 168.023L51.2732 167.893L51.6429 167.316C51.6763 167.338 51.7097 167.359 51.7432 167.38ZM145.028 165.518C144.512 165.887 143.991 166.251 143.467 166.609L143.29 166.729L142.906 166.163C143.03 166.078 143.155 165.993 143.28 165.908C143.675 165.636 144.068 165.361 144.459 165.083L144.63 164.961C144.763 165.147 144.895 165.332 145.028 165.518ZM48.1677 164.958C48.7205 165.353 49.2778 165.742 49.8396 166.124L49.89 166.159L49.5053 166.725C48.9203 166.328 48.3426 165.925 47.7689 165.514C47.7689 165.514 48.1491 164.944 48.1677 164.958ZM148.409 162.965C147.91 163.362 147.407 163.752 146.9 164.138L146.735 164.263L146.322 163.716C146.44 163.627 146.559 163.537 146.677 163.447C147.058 163.156 147.436 162.862 147.811 162.565L147.983 162.429C148.125 162.608 148.267 162.787 148.409 162.965ZM44.8221 162.431C45.3535 162.853 45.8897 163.269 46.4306 163.679L46.4742 163.712L46.0615 164.258C45.5001 163.834 44.9457 163.404 44.3958 162.967C44.3958 162.967 44.7641 162.385 44.8221 162.431ZM151.657 160.245C151.175 160.669 150.689 161.087 150.2 161.5L150.05 161.626L149.61 161.101C149.721 161.008 149.831 160.915 149.941 160.822C150.307 160.512 150.669 160.2 151.029 159.885L151.204 159.731C151.355 159.903 151.506 160.074 151.657 160.245ZM41.6111 159.743C42.1202 160.191 42.6343 160.632 43.1536 161.068L43.1862 161.096L42.7465 161.621C42.6122 161.508 42.4783 161.395 42.3446 161.282C41.9463 160.944 41.5509 160.602 41.1584 160.257L41.5928 159.727C41.599 159.732 41.6051 159.737 41.6111 159.743ZM154.763 157.365C154.272 157.845 153.774 158.317 153.271 158.785L153.228 158.825L152.762 158.323C153.273 157.849 153.779 157.368 154.278 156.882C154.278 156.882 154.572 157.169 154.763 157.365ZM38.541 156.898C39.0268 157.371 39.5178 157.838 40.0143 158.299L39.5687 158.82C39.0598 158.348 38.5591 157.871 38.063 157.389L38.0335 157.36L38.5118 156.87C38.5215 156.879 38.5313 156.889 38.541 156.898ZM157.721 154.332C157.25 154.84 156.773 155.341 156.291 155.837L156.261 155.867L155.771 155.389C156.253 154.895 156.73 154.393 157.201 153.886L157.219 153.867C157.386 154.022 157.553 154.177 157.721 154.332ZM35.6177 153.904C36.0791 154.4 36.5461 154.891 37.0188 155.376L36.5359 155.862C36.0556 155.37 35.5833 154.872 35.1158 154.37L35.0762 154.327L35.5784 153.861C35.5915 153.875 35.6046 153.89 35.6177 153.904ZM32.8473 150.765C33.2579 151.254 33.6735 151.738 34.0944 152.217L34.1696 152.303L33.6555 152.755C33.2327 152.275 32.8137 151.788 32.4003 151.298L32.2752 151.149L32.8003 150.709C32.8159 150.728 32.8316 150.746 32.8473 150.765ZM160.522 151.155C160.074 151.689 159.619 152.218 159.158 152.742L158.628 152.308C159.081 151.795 159.528 151.273 159.97 150.747L159.997 150.715C160.172 150.861 160.347 151.008 160.522 151.155ZM30.2359 147.489C30.6217 147.998 31.0129 148.503 31.4095 149.003L31.4718 149.082L30.9356 149.508C30.5391 149.009 30.1483 148.506 29.7627 147.998L29.6381 147.834L30.1845 147.421C30.2017 147.443 30.2188 147.466 30.2359 147.489ZM163.159 147.84C162.736 148.4 162.305 148.955 161.869 149.505L161.326 149.087C161.752 148.553 162.169 148.014 162.581 147.47L162.613 147.427C162.795 147.564 162.977 147.702 163.159 147.84ZM165.626 144.396C165.23 144.98 164.827 145.558 164.416 146.132L163.858 145.734C164.254 145.182 164.643 144.623 165.026 144.061L165.06 144.011C165.249 144.139 165.437 144.268 165.626 144.396ZM27.7895 144.081C28.1497 144.609 28.5156 145.134 28.887 145.655L28.9398 145.728L28.3829 146.127C28.0129 145.61 27.6496 145.09 27.2914 144.566L27.1715 144.39L27.738 144.005C27.7552 144.03 27.7724 144.055 27.7895 144.081ZM167.917 140.832C167.571 141.401 167.218 141.966 166.859 142.527L166.794 142.628L166.218 142.258C166.585 141.685 166.946 141.108 167.301 140.527L167.331 140.476C167.526 140.595 167.721 140.713 167.917 140.832ZM25.5143 140.547C25.8479 141.094 26.1874 141.638 26.5328 142.178L26.5805 142.252L26.0041 142.622C25.6607 142.087 25.3238 141.548 24.9924 141.006L24.8821 140.825L25.4674 140.47C25.483 140.495 25.4987 140.521 25.5143 140.547ZM170.023 137.156C169.688 137.776 169.345 138.391 168.996 139.002L168.399 138.666C168.479 138.526 168.559 138.384 168.64 138.243C168.896 137.788 169.149 137.332 169.397 136.872L169.42 136.831C169.621 136.939 169.821 137.047 170.023 137.156ZM23.4163 136.893C23.7224 137.458 24.0347 138.02 24.353 138.578L24.4001 138.66L23.8057 139C23.4887 138.447 23.1773 137.888 22.8718 137.326L22.7762 137.149L23.3788 136.824C23.3913 136.847 23.4038 136.87 23.4163 136.893ZM21.5015 133.126C21.7792 133.708 22.0633 134.287 22.3537 134.862L22.4047 134.963L21.7937 135.272C21.4829 134.659 21.1795 134.041 20.8832 133.421L20.8596 133.371L21.4781 133.077C21.4859 133.093 21.4937 133.11 21.5015 133.126ZM171.939 133.378C171.639 134.009 171.331 134.635 171.016 135.258L170.394 134.969C170.707 134.352 171.013 133.73 171.311 133.105C171.311 133.105 171.695 133.262 171.939 133.378ZM173.662 129.508C173.398 130.143 173.126 130.774 172.848 131.403L172.825 131.454L172.2 131.175C172.453 130.606 172.701 130.031 172.942 129.454L173.029 129.245C173.24 129.333 173.451 129.42 173.662 129.508ZM19.776 129.252C20.0399 129.886 20.3112 130.518 20.5901 131.147L19.9741 131.447C19.9045 131.291 19.8356 131.134 19.7669 130.977C19.5548 130.491 19.347 130.004 19.1434 129.514L19.7705 129.238C19.7723 129.243 19.7742 129.247 19.776 129.252ZM175.184 125.554C174.973 126.148 174.755 126.738 174.53 127.327L174.449 127.54L173.809 127.295C173.866 127.148 173.921 127.002 173.977 126.855C174.164 126.36 174.346 125.865 174.524 125.368L174.539 125.325C174.754 125.401 174.969 125.478 175.184 125.554ZM18.2867 125.39C18.5058 126.002 18.7316 126.612 18.9643 127.219L18.9906 127.287L18.3514 127.533C18.1222 126.938 17.8996 126.338 17.6832 125.737L17.6155 125.547L18.2607 125.317C18.2694 125.342 18.2781 125.366 18.2867 125.39ZM176.503 121.528C176.317 122.148 176.124 122.766 175.924 123.382L175.87 123.55L175.218 123.336C175.415 122.738 175.604 122.136 175.786 121.533L175.847 121.332C176.066 121.397 176.284 121.463 176.503 121.528ZM16.9875 121.439C17.1763 122.065 17.3721 122.688 17.5749 123.309L16.9306 123.543C16.7233 122.91 16.5242 122.274 16.3316 121.637L16.297 121.521L16.953 121.324C16.9645 121.363 16.9759 121.401 16.9875 121.439ZM15.8541 117.283C16.011 117.922 16.175 118.559 16.3462 119.194L16.3762 119.305L15.7152 119.484C15.5317 118.807 15.3563 118.127 15.1889 117.446C15.1889 117.446 15.8341 117.201 15.8541 117.283ZM177.615 117.441C177.448 118.119 177.274 118.795 177.092 119.469L176.424 119.312C176.599 118.671 176.765 118.026 176.925 117.379L176.949 117.277C177.171 117.332 177.393 117.386 177.615 117.441ZM14.9573 113.166C15.0823 113.817 15.2146 114.466 15.3539 115.113L15.3779 115.223L14.7087 115.369C14.559 114.679 14.4177 113.988 14.2846 113.294C14.2846 113.294 14.9085 112.909 14.9573 113.166ZM178.517 113.301C178.385 113.988 178.245 114.672 178.096 115.355L177.423 115.23C177.565 114.578 177.699 113.921 177.826 113.264L177.844 113.172C178.068 113.215 178.292 113.258 178.517 113.301ZM179.207 109.121C179.117 109.762 179.02 110.402 178.917 111.041L178.888 111.216L178.213 111.104C178.236 110.964 178.258 110.824 178.281 110.685C178.359 110.19 178.434 109.695 178.504 109.199L178.528 109.027C178.755 109.058 178.98 109.09 179.207 109.121ZM14.2844 109.099C14.3775 109.76 14.478 110.42 14.586 111.079L13.9131 111.208C13.8848 111.036 13.8572 110.865 13.8298 110.693C13.7511 110.194 13.6765 109.694 13.6061 109.194L13.595 109.114L14.2733 109.019C14.277 109.046 14.2808 109.073 14.2844 109.099ZM179.683 104.912C179.625 105.577 179.559 106.241 179.484 106.905L179.471 107.019L178.791 106.943C178.866 106.276 178.934 105.61 178.993 104.943L179.002 104.852C179.229 104.872 179.456 104.892 179.683 104.912ZM13.8114 104.969C13.868 105.598 13.9314 106.226 14.0013 106.853L14.0105 106.935L13.33 107.012C13.2554 106.353 13.1888 105.691 13.1293 105.029L13.1182 104.904L13.8004 104.844C13.8041 104.885 13.8078 104.927 13.8114 104.969ZM179.948 100.684C179.923 101.358 179.889 102.033 179.848 102.707L179.843 102.799L179.159 102.757C179.201 102.091 179.234 101.422 179.26 100.753L179.264 100.658C179.492 100.667 179.72 100.676 179.948 100.684ZM13.5433 100.778C13.5686 101.416 13.6006 102.053 13.6394 102.69L13.6431 102.75L12.9596 102.792C12.9183 102.131 12.8852 101.468 12.8589 100.805L12.854 100.677L13.5384 100.651C13.54 100.693 13.5416 100.736 13.5433 100.778ZM13.4863 96.4495C13.4788 97.0609 13.4777 97.6746 13.4832 98.2875L13.4863 98.5508L12.8014 98.5592C12.7933 97.8965 12.7928 97.2346 12.7998 96.5727L12.8014 96.441C13.0297 96.4433 13.258 96.4464 13.4863 96.4495ZM180.003 96.5727C180.009 97.2346 180.009 97.8965 180.001 98.5592L179.316 98.5508C179.323 97.937 179.325 97.3249 179.319 96.7119L179.316 96.4495L180.001 96.441C180.001 96.4847 180.002 96.529 180.003 96.5727ZM179.846 92.2668C179.885 92.9088 179.918 93.5508 179.944 94.1936L179.948 94.3222L179.264 94.3482C179.238 93.6694 179.204 92.9892 179.163 92.3089L179.159 92.25L179.843 92.2071C179.844 92.227 179.845 92.2469 179.846 92.2668ZM13.6429 92.2431C13.6014 92.9096 13.5679 93.5776 13.5416 94.2464L13.5379 94.3421L12.8535 94.316C12.8791 93.6404 12.9127 92.9662 12.9536 92.2928L12.9593 92.2002C13.1872 92.2148 13.415 92.2293 13.6429 92.2431ZM179.481 88.0688C179.552 88.7016 179.616 89.3352 179.673 89.9696L179.684 90.0943L179.002 90.1548C178.943 89.4852 178.875 88.8149 178.801 88.1453L178.792 88.0642L179.472 87.9869C179.475 88.0145 179.478 88.042 179.481 88.0688ZM14.0107 88.0573C13.9358 88.7215 13.8685 89.388 13.8085 90.0561L13.8004 90.1479L13.1182 90.0882C13.1769 89.4217 13.2436 88.7583 13.3173 88.0948L13.3301 87.9808C13.557 88.0061 13.7838 88.0321 14.0107 88.0573ZM178.891 83.8088C179.001 84.473 179.102 85.138 179.196 85.8045L179.208 85.8856L178.529 85.9798C178.433 85.2911 178.328 84.6047 178.216 83.9198L178.889 83.7912C178.89 83.7966 178.891 83.8027 178.891 83.8088ZM14.5895 83.8961C14.5665 84.0353 14.5439 84.1754 14.5215 84.3146C14.4428 84.8097 14.3683 85.3048 14.2979 85.8007L14.2737 85.9729L13.5954 85.8787C13.6845 85.2375 13.7818 84.597 13.8854 83.9581L13.9138 83.7843C14.139 83.8218 14.3643 83.8586 14.5895 83.8961ZM178.118 79.7417C178.258 80.3944 178.392 81.0487 178.517 81.7045L177.845 81.8338C177.721 81.1841 177.588 80.5345 177.448 79.8863L177.424 79.7754L178.093 79.63C178.102 79.6675 178.109 79.7042 178.118 79.7417ZM15.3789 79.7692C15.3422 79.9376 15.3063 80.1059 15.2706 80.2743C15.1683 80.761 15.0699 81.2477 14.9756 81.7359L14.958 81.8277L14.2853 81.6991C14.4171 81.0112 14.5572 80.3271 14.7054 79.6438C14.7054 79.6438 15.1137 79.7119 15.3789 79.7692ZM177.117 75.6264C177.29 76.2668 177.455 76.9089 177.613 77.5532L176.951 77.7284C176.794 77.0849 176.628 76.4444 176.456 75.8054L176.426 75.6945L177.087 75.5154C177.097 75.5521 177.107 75.5896 177.117 75.6264ZM16.3776 75.6883C16.3325 75.8544 16.2881 76.0204 16.2439 76.1857C16.1178 76.6632 15.9956 77.1415 15.8774 77.6198L15.8522 77.7231L15.1871 77.5593C15.3534 76.8813 15.5281 76.2049 15.7107 75.5307C15.7107 75.5307 16.1163 75.6172 16.3776 75.6883ZM175.878 71.4766C176.082 72.1033 176.28 72.7315 176.47 73.3628L176.505 73.4776L175.849 73.6751C175.65 73.0116 175.443 72.3489 175.227 71.6893L175.871 71.4567C175.873 71.4628 175.876 71.4697 175.878 71.4766ZM17.5832 71.6633C17.5397 71.7964 17.4967 71.9296 17.4537 72.062C17.3038 72.5288 17.1577 72.9971 17.0156 73.4661L16.9547 73.6682L16.2987 73.4715C16.4847 72.8517 16.678 72.2334 16.8778 71.6174L16.9324 71.4506C17.1493 71.5217 17.3663 71.5921 17.5832 71.6633ZM174.477 67.5342C174.712 68.1464 174.939 68.7608 175.16 69.3784L175.186 69.4518L174.541 69.6821C174.328 69.0837 174.108 68.4876 173.882 67.8938L173.811 67.7117L174.451 67.4653C174.459 67.4883 174.469 67.5112 174.477 67.5342ZM18.9928 67.7056C18.7473 68.3438 18.509 68.9866 18.2784 69.6316L18.2628 69.6753L17.6176 69.4457C17.6641 69.3148 17.711 69.1848 17.7581 69.0539C17.9257 68.5917 18.097 68.1311 18.2721 67.6719L18.3536 67.46C18.5667 67.5418 18.7798 67.6237 18.9928 67.7056ZM172.838 63.5742C173.119 64.2078 173.393 64.8452 173.659 65.4849L173.031 65.7604C172.968 65.6066 172.903 65.4528 172.839 65.299C172.633 64.8154 172.425 64.3325 172.212 63.8527L172.828 63.552C172.831 63.5596 172.835 63.5665 172.838 63.5742ZM20.6024 63.8244C20.3324 64.4312 20.0696 65.0434 19.8131 65.6579L19.7727 65.7551L19.1403 65.4926C19.3882 64.8957 19.6432 64.3004 19.9047 63.7081L19.9767 63.5459C20.1852 63.6392 20.3938 63.7318 20.6024 63.8244ZM171.059 59.8277C171.353 60.4085 171.639 60.9916 171.919 61.5785L171.943 61.6282L171.323 61.9221C171.056 61.3589 170.782 60.8003 170.502 60.2447L170.398 60.0366L171.008 59.7267C171.025 59.7603 171.043 59.794 171.059 59.8277ZM22.4074 60.0305C22.3312 60.1812 22.2555 60.332 22.1801 60.4819C21.9466 60.9502 21.7168 61.4216 21.491 61.8945L20.8623 61.6221C21.1625 60.99 21.471 60.3641 21.7865 59.7412C21.7865 59.7412 22.166 59.908 22.4074 60.0305ZM169.043 56.0812C169.365 56.6444 169.679 57.2099 169.988 57.78L170.026 57.8496L169.423 58.1748C169.125 57.6231 168.82 57.0721 168.508 56.5258L168.402 56.339L168.996 55.9985C169.012 56.0261 169.028 56.0536 169.043 56.0812ZM24.4031 56.3337C24.3224 56.4737 24.2424 56.6153 24.1626 56.7561C23.9064 57.2099 23.6536 57.6675 23.4048 58.1266L23.382 58.1694L22.7792 57.8442C22.8638 57.6874 22.9491 57.5305 23.0347 57.3744C23.288 56.913 23.5453 56.4538 23.8066 55.997C23.8066 55.997 24.1657 56.1975 24.4031 56.3337ZM166.845 52.4517C167.194 52.9966 167.536 53.5445 167.872 54.0962L167.92 54.1742L167.334 54.5293C167.006 53.9898 166.673 53.4542 166.333 52.9223L166.222 52.7471L166.798 52.3775C166.814 52.402 166.83 52.4273 166.845 52.4517ZM26.584 52.7418C26.2163 53.3149 25.8558 53.8919 25.5018 54.4727L25.4708 54.5239L24.8854 54.1681C24.9588 54.0472 25.0324 53.9271 25.1063 53.8062C25.3603 53.3937 25.6175 52.9828 25.8779 52.5742L26.0075 52.3722C26.1996 52.4954 26.3919 52.6186 26.584 52.7418ZM164.472 48.9463C164.847 49.4712 165.215 50 165.578 50.5333L165.63 50.6099L165.064 50.994C164.979 50.87 164.894 50.7453 164.809 50.6213C164.538 50.2257 164.263 49.8332 163.984 49.4421L163.862 49.2707L164.419 48.872C164.436 48.8965 164.454 48.9218 164.472 48.9463ZM28.9433 49.2654C28.5462 49.8194 28.1582 50.3765 27.7761 50.9381L27.7417 50.9886L27.1751 50.6045C27.5709 50.0206 27.9753 49.4421 28.3861 48.8675C28.3861 48.8675 28.7206 49.1062 28.9433 49.2654ZM161.929 45.5701C162.329 46.0744 162.723 46.584 163.112 47.0967L163.164 47.1656L162.618 47.5781C162.239 47.0768 161.855 46.5817 161.467 46.0897L161.33 45.9175L161.866 45.4913C161.887 45.5173 161.908 45.5441 161.929 45.5701ZM31.4755 45.913C31.374 46.04 31.273 46.1685 31.1721 46.2963C30.8521 46.7042 30.535 47.1151 30.2215 47.5291L30.1884 47.5727L29.6419 47.1603C30.066 46.5986 30.4964 46.0446 30.9332 45.4944C30.9332 45.4944 31.2617 45.7423 31.4755 45.913ZM159.222 42.3294C159.646 42.8131 160.066 43.3013 160.48 43.7933L160.527 43.8499L160.001 44.2899C159.601 43.8117 159.196 43.3395 158.786 42.8712L158.632 42.696L159.147 42.2437C159.172 42.272 159.197 42.3011 159.222 42.3294ZM34.1736 42.6914C34.0628 42.8169 33.9525 42.9431 33.8424 43.0694C33.5026 43.4604 33.1655 43.8545 32.8319 44.2524L32.8045 44.2846L32.2794 43.8453C32.3919 43.7107 32.505 43.5767 32.6183 43.4428C32.9567 43.0449 33.2985 42.6493 33.6438 42.2567C33.6438 42.2567 33.9708 42.5123 34.1736 42.6914ZM156.273 39.1446C156.75 39.6343 157.22 40.1287 157.686 40.6291L157.726 40.672L157.224 41.138C156.749 40.6261 156.269 40.1218 155.783 39.6229C155.783 39.6229 156.222 39.0918 156.273 39.1446ZM37.0305 39.6106C36.5476 40.1057 36.0719 40.6062 35.6014 41.1127L35.0805 40.6674C35.5503 40.16 36.0284 39.6581 36.5116 39.1614L36.5403 39.1324C36.7037 39.2915 36.8671 39.4507 37.0305 39.6106ZM153.254 36.1977C153.754 36.663 154.249 37.1336 154.739 37.6103L154.769 37.6394L154.29 38.1292C153.795 37.6455 153.294 37.1703 152.788 36.6997L153.233 36.1794C153.24 36.1855 153.247 36.1916 153.254 36.1977ZM40.0389 36.6768C39.7908 36.9071 39.5444 37.139 39.2993 37.3708C39.0394 37.6188 38.7809 37.8675 38.5239 38.1177L38.038 37.6348C38.5302 37.1543 39.0279 36.6821 39.5307 36.2146L39.5733 36.1748C39.7285 36.3424 39.8837 36.51 40.0389 36.6768ZM150.089 33.4055C150.612 33.8455 151.13 34.2908 151.644 34.7423L151.209 35.2726C150.694 34.8181 150.174 34.3719 149.649 33.9304L149.616 33.9036L150.056 33.3779C150.066 33.3871 150.077 33.3963 150.089 33.4055ZM43.1911 33.899C42.713 34.2992 42.2409 34.7048 41.7729 35.1142L41.5973 35.268L41.1448 34.7545C41.6262 34.3306 42.1122 33.912 42.6026 33.4988L42.7513 33.3741C42.8979 33.5493 43.0445 33.7238 43.1911 33.899ZM146.784 30.7739C147.33 31.1871 147.87 31.6064 148.406 32.0319L147.988 32.5744C147.454 32.149 146.915 31.7319 146.371 31.3202L146.328 31.2873L146.74 30.741C146.755 30.7517 146.77 30.7624 146.784 30.7739ZM46.4794 31.2835C46.3611 31.3723 46.2432 31.4618 46.1254 31.5521C45.7445 31.8429 45.3665 32.1367 44.9909 32.4336L44.8185 32.5706L44.3925 32.0342C44.8914 31.6378 45.3946 31.2468 45.9019 30.8611L46.0665 30.7364C46.2041 30.9185 46.3417 31.1014 46.4794 31.2835ZM143.347 28.3084C143.914 28.694 144.476 29.0858 145.033 29.4845L144.635 30.0423C144.083 29.646 143.525 29.2572 142.962 28.8746L142.912 28.8402L143.297 28.2739C143.313 28.2854 143.33 28.2969 143.347 28.3084ZM49.8953 28.8364C49.7709 28.9213 49.6466 29.0062 49.5225 29.0912C49.1267 29.3636 48.7339 29.6383 48.3432 29.9161L48.1717 30.0385L47.7731 29.4814C48.2896 29.1118 48.8101 28.7484 49.3344 28.3902L49.5105 28.2701C49.6388 28.4591 49.767 28.6481 49.8953 28.8364ZM139.783 26.015C140.335 26.3517 140.884 26.6937 141.428 27.0419L141.529 27.1062L141.159 27.6824C140.586 27.3159 140.009 26.9547 139.428 26.6004L139.377 26.5698L139.732 25.9844C139.75 25.9943 139.767 26.005 139.783 26.015ZM53.4305 26.566C53.3021 26.644 53.1739 26.7228 53.0458 26.8009C52.6359 27.0534 52.2289 27.3082 51.8239 27.5669L51.6484 27.6793L51.2784 27.1024C51.8132 26.7596 52.3518 26.4221 52.8939 26.0908L53.0749 25.9806C53.1935 26.1757 53.312 26.3708 53.4305 26.566ZM136.099 23.9007C136.704 24.229 137.306 24.5634 137.903 24.9054L137.567 25.5015C136.974 25.161 136.375 24.8289 135.774 24.5037L135.732 24.4807L136.057 23.8777C136.071 23.8854 136.085 23.893 136.099 23.9007ZM57.0762 24.4777C56.5225 24.7761 55.9733 25.0814 55.4268 25.3921L55.2399 25.4985L54.8997 24.9047C55.4544 24.5871 56.0127 24.2757 56.5742 23.9703L56.7508 23.8747C56.8592 24.0759 56.9678 24.2764 57.0762 24.4777ZM132.3 21.9716C132.923 22.2685 133.543 22.573 134.159 22.8853L133.87 23.5058C133.254 23.1929 132.631 22.8883 132.006 22.5899L132.279 21.9609C132.286 21.9647 132.293 21.9678 132.3 21.9716ZM60.8231 22.5769C60.6975 22.6366 60.5721 22.6962 60.4468 22.7567C60.0109 22.9671 59.5776 23.1806 59.146 23.3979L58.9373 23.5035L58.6279 22.8921C59.2415 22.5815 59.8587 22.2784 60.4793 21.9815L60.5289 21.9586C60.6269 22.1644 60.725 22.3703 60.8231 22.5769ZM128.506 20.2797C129.108 20.5307 129.707 20.7886 130.304 21.0526L130.354 21.0755L130.076 21.7015C129.504 21.4466 128.931 21.1995 128.355 20.9584L128.146 20.8712L128.408 20.2391C128.441 20.2521 128.474 20.2659 128.506 20.2797ZM64.6618 20.8689C64.5078 20.9332 64.3541 20.9975 64.2005 21.0617C63.7166 21.2668 63.2341 21.4757 62.7536 21.6885L62.4531 21.0725C62.6095 21.0028 62.766 20.9339 62.9228 20.8658C63.4087 20.6531 63.8965 20.4457 64.3862 20.2422C64.3862 20.2422 64.5574 20.6171 64.6618 20.8689ZM124.499 18.7317C125.116 18.9528 125.731 19.1801 126.343 19.4142L126.441 19.4525L126.195 20.0914C125.557 19.8458 124.914 19.6078 124.269 19.3767L124.225 19.3614L124.455 18.7163C124.469 18.7217 124.484 18.7271 124.499 18.7317ZM68.5828 19.3591C67.9831 19.5726 67.3876 19.793 66.7948 20.0195L66.6127 20.0891L66.3667 19.4502C66.9631 19.2206 67.5622 18.9979 68.1636 18.7822L68.3531 18.7141C68.4296 18.9291 68.5062 19.1441 68.5828 19.3591ZM120.514 17.4231C121.145 17.6129 121.773 17.8103 122.4 18.0146L122.451 18.0315L122.237 18.6819C122.104 18.6383 121.971 18.5954 121.838 18.5526C121.372 18.4026 120.903 18.2565 120.434 18.1141L120.232 18.0537L120.429 17.3971C120.457 17.4063 120.485 17.4147 120.514 17.4231ZM72.5758 18.0514C71.9118 18.2511 71.2496 18.4585 70.5907 18.6735L70.3575 18.0292C70.9897 17.8218 71.6257 17.6229 72.2636 17.43L72.3789 17.3956C72.4445 17.6144 72.5102 17.8325 72.5758 18.0514ZM116.444 16.3113C117.088 16.4697 117.729 16.6357 118.37 16.8094L118.212 17.4767C117.569 17.3015 116.926 17.1354 116.28 16.9762L116.178 16.951L116.341 16.286C116.375 16.2944 116.41 16.3028 116.444 16.3113ZM76.6297 16.9495C76.4656 16.9892 76.3016 17.0306 76.1377 17.0719C75.6601 17.192 75.1827 17.316 74.7063 17.4446L74.5955 17.4744L74.4163 16.814C75.0929 16.6304 75.7726 16.4551 76.4542 16.2875C76.4542 16.2875 76.5651 16.6847 76.6297 16.9495ZM112.294 15.4022C112.95 15.5284 113.604 15.6624 114.257 15.8039L114.131 16.4781C113.476 16.335 112.821 16.2011 112.164 16.074L112.073 16.0564L112.202 15.3838C112.233 15.3899 112.263 15.3961 112.294 15.4022ZM80.735 16.0557C80.4094 16.1177 80.0841 16.1827 79.7588 16.2485C79.3015 16.3419 78.6767 16.4766 78.6767 16.4766L78.5314 15.807C79.2207 15.6578 79.9125 15.5162 80.6057 15.3831C80.6057 15.3831 80.6837 15.7863 80.735 16.0557ZM108.07 14.7012C108.736 14.7946 109.402 14.8956 110.066 15.0043L110.116 15.0127L110.004 15.6884C109.37 15.5835 108.736 15.4871 108.1 15.3968L107.927 15.3723L108.022 14.6944C108.038 14.6967 108.054 14.699 108.07 14.7012ZM84.8808 15.3716C84.73 15.393 84.5793 15.4144 84.4285 15.4359C83.8919 15.5139 83.356 15.5966 82.8209 15.6846L82.692 15.0119C82.8636 14.9836 83.0354 14.9561 83.2072 14.9285C83.7062 14.8497 84.2058 14.7755 84.706 14.7051L84.7864 14.6936C84.8179 14.9193 84.8494 15.1458 84.8808 15.3716ZM103.905 14.2253C104.539 14.2819 105.173 14.3454 105.805 14.4158L105.92 14.4288L105.843 15.1099C105.176 15.0341 104.511 14.9675 103.844 14.9071L103.752 14.8994L103.813 14.2169C103.843 14.2199 103.874 14.2222 103.905 14.2253ZM89.0556 14.8987C88.3845 14.9584 87.715 15.0249 87.0462 15.0999L86.9651 15.1091L86.8882 14.4288C87.5474 14.3538 88.2093 14.2873 88.8704 14.2276L88.9959 14.2169C89.0158 14.4441 89.0357 14.6714 89.0556 14.8987ZM99.6799 13.9559C100.323 13.9812 100.965 14.0133 101.607 14.0523L101.7 14.0585L101.657 14.7418C100.988 14.7005 100.322 14.6668 99.6539 14.6408L99.559 14.637L99.585 13.9521C99.6164 13.9536 99.6485 13.9552 99.6799 13.9559ZM93.2498 14.637C92.568 14.663 91.8885 14.6967 91.2097 14.738L91.1508 14.7418L91.1079 14.0585C91.7691 14.0171 92.4318 13.9835 93.0952 13.9575L93.2238 13.9529C93.2322 14.1809 93.2406 14.4089 93.2498 14.637ZM96.5333 13.8939C96.8425 13.8947 97.1509 13.8962 97.46 13.9001L97.4531 14.5849C97.2779 14.5826 97.1019 14.5811 96.9267 14.5803C96.401 14.5773 95.8745 14.5788 95.3488 14.5849L95.3419 13.9001C95.7383 13.8955 96.1362 13.8932 96.5333 13.8939Z" fill="#9BC3D3"/>
<path fill-rule="evenodd" clip-rule="evenodd" d="M63.4932 24.278C65.1209 24.3002 66.4477 22.9879 66.4477 21.3648C66.4477 19.7556 65.1438 18.4517 63.5346 18.4517C61.9115 18.4517 60.5992 19.7785 60.6214 21.4062C60.6436 22.9534 61.946 24.2566 63.4932 24.278ZM94.1488 181.449L98.0009 184.614L101.165 180.763L97.313 177.598L94.1488 181.449Z" fill="#FFCC33"/>
<path fill-rule="evenodd" clip-rule="evenodd" d="M136.753 27.5523C138.339 27.5523 139.626 26.2744 139.626 24.698C139.626 23.1217 138.339 21.8438 136.753 21.8438C135.166 21.8438 133.879 23.1217 133.879 24.698C133.879 26.2744 135.166 27.5523 136.753 27.5523ZM27.9245 139.102L24.0728 135.937L20.9082 139.789L24.7599 142.953L27.9245 139.102Z" fill="#1BB3BC"/>
<path fill-rule="evenodd" clip-rule="evenodd" d="M14.7129 74.3424H19.5116V69.5437H14.7129V74.3424Z" fill="#EC0000"/>
<path fill-rule="evenodd" clip-rule="evenodd" d="M170.301 132.839H175.099V128.04H170.301V132.839Z" fill="#9E3667"/>
<path fill-rule="evenodd" clip-rule="evenodd" d="M171.248 58.6736L175.1 61.8393L171.935 65.6899L168.084 62.5249L171.248 58.6736Z" fill="#444444"/>
<path fill-rule="evenodd" clip-rule="evenodd" d="M16.2585 103.059C16.2585 104.636 14.9722 105.914 13.3851 105.914C11.7981 105.914 10.5117 104.636 10.5117 103.059C10.5117 101.483 11.7981 100.205 13.3851 100.205C14.9722 100.205 16.2585 101.483 16.2585 103.059Z" fill="#856300"/>
</svg>
