<svg width="38" height="29" viewBox="0 0 38 29" fill="none" xmlns="http://www.w3.org/2000/svg">
<path fill-rule="evenodd" clip-rule="evenodd" d="M36.1878 14.8552C36.1878 21.6788 30.6562 27.2104 23.8326 27.2104C17.009 27.2104 11.4774 21.6788 11.4774 14.8552C11.4774 8.0316 17.009 2.5 23.8326 2.5C30.6562 2.5 36.1878 8.0316 36.1878 14.8552ZM37.7503 14.8552C37.7503 22.5417 31.5191 28.7729 23.8326 28.7729C16.1461 28.7729 9.91493 22.5417 9.91493 14.8552C9.91493 7.16866 16.1461 0.9375 23.8326 0.9375C31.5191 0.9375 37.7503 7.16866 37.7503 14.8552ZM26.8162 16.9384L29.1953 19.3175C31.2623 16.838 31.3424 13.262 29.4358 10.6975L27.0252 13.1081C27.6819 14.3083 27.6122 15.8001 26.8162 16.9384ZM25.6673 17.9992C24.5658 18.644 23.1982 18.6612 22.0826 18.0507L19.672 20.4612C22.1603 22.3112 25.6008 22.2908 28.068 20.3999L25.6673 17.9992ZM20.9023 17.0212C20.0293 15.8447 19.9569 14.2611 20.6852 13.0171L18.2844 10.6163C16.2946 13.2126 16.3761 16.8867 18.5288 19.3947L20.9023 17.0212ZM21.746 11.8682L19.3668 9.48897C21.9721 7.31708 25.7882 7.33885 28.3693 9.55428L25.9957 11.9278C24.7402 10.9962 23.0213 10.9764 21.746 11.8682ZM29.8689 20.8944C26.5334 24.2299 21.1254 24.2299 17.7899 20.8944C14.4544 17.5589 14.4544 12.1509 17.7899 8.81537C21.1254 5.47984 26.5334 5.47984 29.8689 8.81537C33.2045 12.1509 33.2045 17.5589 29.8689 20.8944ZM25.2992 16.3247C24.4875 17.1364 23.1714 17.1364 22.3597 16.3247C21.5479 15.513 21.5479 14.1969 22.3597 13.3852C23.1714 12.5735 24.4875 12.5735 25.2992 13.3852C26.1109 14.1969 26.1109 15.513 25.2992 16.3247ZM7.80464 15.671C7.80464 16.1024 7.45487 16.4522 7.02339 16.4522H1.03156C0.600082 16.4522 0.250305 16.1024 0.250305 15.671C0.250305 15.2395 0.600083 14.8897 1.03156 14.8897H7.02339C7.45487 14.8897 7.80464 15.2395 7.80464 15.671ZM9.13368 9.51122C9.56516 9.51122 9.91493 9.16145 9.91493 8.72997C9.91493 8.2985 9.56516 7.94872 9.13368 7.94872H6.47664C6.04517 7.94872 5.69539 8.2985 5.69539 8.72997C5.69539 9.16144 6.04517 9.51122 6.47664 9.51122H9.13368ZM14.6787 1.71875C14.6787 2.15022 14.3289 2.5 13.8975 2.5L1.71244 2.5C1.28097 2.5 0.931188 2.15022 0.931188 1.71875C0.931188 1.28728 1.28097 0.9375 1.71244 0.9375H13.8975C14.3289 0.9375 14.6787 1.28728 14.6787 1.71875ZM9.13368 23.6669C9.56516 23.6669 9.91493 23.3171 9.91493 22.8856C9.91493 22.4542 9.56516 22.1044 9.13368 22.1044H6.47664C6.04517 22.1044 5.69539 22.4542 5.69539 22.8856C5.69539 23.3171 6.04517 23.6669 6.47664 23.6669H9.13368Z" fill="#EC0000"/>
</svg>
