<?xml version="1.0" encoding="utf-8"?>
<!-- Generator: Adobe Illustrator 25.0.1, SVG Export Plug-In . SVG Version: 6.00 Build 0)  -->
<svg version="1.1" id="Capa_1" xmlns="http://www.w3.org/2000/svg" xmlns:xlink="http://www.w3.org/1999/xlink" x="0px" y="0px"
	 viewBox="0 0 54 54" style="enable-background:new 0 0 54 54;" xml:space="preserve">
<style type="text/css">
	.st0{fill-rule:evenodd;clip-rule:evenodd;fill:#F8E71C;}
</style>
<desc>Created with Sketch.</desc>
<g id="Iconos-Modyo-Asp">
	<g id="str-error" transform="translate(-6.000000, -6.000000)">
		<path id="Combined-Shape" class="st0" d="M32.6,6c7.1,0,13.8,2.8,18.8,7.8c10.4,10.4,10.4,27.2,0,37.6c-5,5-11.7,7.8-18.8,7.8
			s-13.8-2.8-18.8-7.8C3.4,41,3.4,24.2,13.8,13.8C18.8,8.8,25.5,6,32.6,6z M32.6,8.7c-6.4,0-12.4,2.5-16.9,7
			c-9.3,9.3-9.3,24.5,0,33.9c4.5,4.5,10.5,7,16.9,7s12.4-2.5,16.9-7c9.3-9.3,9.3-24.5,0-33.9C45,11.1,39,8.7,32.6,8.7z M21.3,21.3
			c0.5-0.5,1.4-0.5,1.9,0l0,0l9.4,9.4l9.4-9.4c0.5-0.5,1.4-0.5,1.9,0c0.5,0.5,0.5,1.4,0,1.9l0,0l-9.4,9.4l9.4,9.4
			c0.5,0.5,0.5,1.4,0,1.9c-0.3,0.3-0.6,0.4-0.9,0.4s-0.7-0.1-0.9-0.4l0,0l-9.4-9.4l-9.4,9.4c-0.3,0.3-0.6,0.4-0.9,0.4
			s-0.7-0.1-0.9-0.4c-0.5-0.5-0.5-1.4,0-1.9l0,0l9.4-9.4l-9.4-9.4C20.8,22.7,20.8,21.8,21.3,21.3z"/>
	</g>
</g>
</svg>
