<?xml version="1.0" encoding="UTF-8"?>
<svg width="32px" height="31px" viewBox="0 0 32 31" version="1.1" xmlns="http://www.w3.org/2000/svg" xmlns:xlink="http://www.w3.org/1999/xlink">
    <title>Combined Shape Copy</title>
    <g id="Experimento-Home-Seguros-(SOAP-2023)" stroke="none" stroke-width="1" fill="none" fill-rule="evenodd">
        <path d="M13.0905478,0 C13.9334973,0.0101297031 14.7465469,0.0506485154 15.5365964,0.122681959 L15.5526964,0.122681959 C15.5825613,0.123031014 15.6122811,0.126808585 15.6412464,0.133937185 C19.8582941,0.53574874 23.2841422,1.85598671 25.6381909,4.01699003 C25.9107408,4.26685604 28.2923895,6.51790117 28.2923895,8.75206346 L28.2923895,8.86461571 C29.3802889,9.26079966 30.2174884,10.1949834 30.5360383,11.37228 C30.680001,11.8729425 30.7573068,12.3897031 30.7660381,12.9097438 L30.7660381,14.7938686 C31.5520403,15.47283 32.0015765,16.4499446 32,17.4759889 C32,19.4242684 30.4394383,21 28.5223894,21 C27.4031593,20.993891 26.3572509,20.4541345 25.7198409,19.5537035 L20.431198,19.5527622 C20.9525565,20.0234261 21.3412562,20.6524044 21.5360383,21.37228 C21.680001,21.8729425 21.7573068,22.3897031 21.7660381,22.9097438 L21.7660381,24.7938686 C22.5520403,25.47283 23.0015765,26.4499446 23,27.4759889 C23,29.4242684 21.4394383,31 19.5223894,31 C18.4031593,30.993891 17.3572509,30.4541345 16.7198409,29.5537035 L6.28014658,29.5537035 C5.64273661,30.4541345 4.59682817,30.993891 3.47759811,31 C1.56054915,31 0,29.4197663 0,27.4759889 C0,27.409583 0.0103499944,27.3454282 0.0103499944,27.2801479 C0.00524579087,27.2628636 0.00178112165,27.2451555 0,27.2272484 L0,21.923786 C0,21.4319327 0.086249953,21.0548826 0.263349857,20.7723765 C0.46003548,20.4710074 0.758882878,20.2470598 1.1074494,20.1398328 L1.23394933,20.1026905 L1.23394933,11.647765 C1.23394933,10.8002465 2.0274489,10 2.86579844,10 L4.09054777,10 C4.93349731,10.0101297 5.74654687,10.0506485 6.53659644,10.122682 L6.55269643,10.122682 C6.58256128,10.123031 6.61228114,10.1268086 6.64124638,10.1339372 C7.61520464,10.2267385 8.54695928,10.3685299 9.43305342,10.5583547 C9.61469394,10.3649993 9.84721526,10.2198868 10.1074494,10.1398328 L10.2339493,10.1026905 L10.2339493,1.64776503 C10.2339493,0.800246543 11.0274489,0 11.8657984,0 L13.0905478,0 Z M3.47759811,24.7533498 C1.99294891,24.7533498 0.784299573,25.9779183 0.784299573,27.482742 C0.784299573,28.9875657 1.99294891,30.2110087 3.47759811,30.2110087 C4.9622473,30.2110087 6.17089664,28.9920677 6.17089664,27.484993 C6.17089664,25.9779183 4.9622473,24.7533498 3.47759811,24.7533498 Z M19.5223894,24.7533498 C18.0377402,24.7533498 16.8290908,25.9779183 16.8290908,27.482742 C16.8290908,28.9875657 18.0377402,30.2110087 19.5223894,30.2110087 C21.0070386,30.2110087 22.2156879,28.9875657 22.2156879,27.482742 C22.2156879,25.9779183 21.0070386,24.7533498 19.5223894,24.7533498 Z M4.09169777,10.8013721 L2.86579844,10.8013721 C2.45409866,10.8013721 2.0193989,11.2403259 2.0193989,11.6545182 L2.0193989,20.4122092 C2.02130814,20.5868653 1.90580297,20.7420185 1.73534905,20.7937614 L1.33974927,20.9063136 C1.16984567,20.9555441 1.02320197,21.06199 0.925749496,21.2068282 C0.861349531,21.3081252 0.785449572,21.5174724 0.785449572,21.9305392 L0.785449572,25.2564584 C1.43132451,24.4418864 2.42411186,23.9633216 3.47759811,23.9587308 C5.39579706,23.9587308 6.95519621,25.5389645 6.95519621,27.482742 C6.9548184,27.9212309 6.87298779,28.3559993 6.71369634,28.7658377 L16.2862911,28.7658377 C16.1271178,28.3552204 16.0456727,27.919667 16.0459413,27.4804909 C16.0459413,25.5322114 17.6053404,23.9564798 19.5235394,23.9564798 C20.0287165,23.9569443 20.5272354,24.0693017 20.9817386,24.2851324 L20.9817386,22.9074928 C20.9747895,22.4590943 20.9086927,22.0134523 20.7850887,21.5816272 C20.5297888,20.6406903 19.8616392,19.898971 18.9968397,19.5973309 C18.9519897,19.5815736 18.9105897,19.5703184 18.8703397,19.5590631 L18.8381397,19.5590631 L9.40814488,17.9484403 C8.77348675,17.8623893 8.14507934,17.7368265 7.5267459,17.5725158 C7.09628594,17.4447811 6.72646186,17.1710219 6.48369647,16.8004073 C6.26749659,16.4559974 6.16169664,15.9911566 6.16169664,15.3799979 L6.16169664,10.8925394 C5.49354701,10.8396398 4.80354738,10.8013721 4.09169777,10.8013721 Z M28.5223894,14.7533498 C27.0377402,14.7533498 25.8290908,15.9779183 25.8290908,17.482742 C25.8290908,18.9875657 27.0377402,20.2110087 28.5223894,20.2110087 C30.0070386,20.2110087 31.2156879,18.9875657 31.2156879,17.482742 C31.2156879,15.9779183 30.0070386,14.7533498 28.5223894,14.7533498 Z M13.0916978,0.801372066 L11.8657984,0.801372066 C11.4540987,0.801372066 11.0193989,1.24032587 11.0193989,1.65451817 L11.0193989,10.4122092 C11.0213081,10.5868653 10.905803,10.7420185 10.7353491,10.7937614 L10.5811865,10.8381953 C13.0214367,11.5084562 15.0681856,12.5757341 16.6381909,14.01699 C16.9107408,14.266856 19.2923895,16.5179012 19.2923895,18.7520635 L19.2921865,18.7653721 L25.2862911,18.7658377 C25.1271178,18.3552204 25.0456727,17.919667 25.0459413,17.4804909 C25.0459413,15.5322114 26.6053404,13.9564798 28.5235394,13.9564798 C29.0287165,13.9569443 29.5272354,14.0693017 29.9817386,14.2851324 L29.9817386,12.9074928 C29.9747895,12.4590943 29.9086927,12.0134523 29.7850887,11.5816272 C29.5297888,10.6406903 28.8616392,9.89897095 27.9968397,9.5973309 C27.9519897,9.58157359 27.9105897,9.57031836 27.8703397,9.55906314 L27.8381397,9.55906314 L18.4081449,7.94844035 C17.7734868,7.86238934 17.1450793,7.73682652 16.5267459,7.57251581 C16.0962859,7.44478106 15.7264619,7.17102193 15.4836965,6.80040733 C15.2674966,6.45599743 15.1616966,5.99115661 15.1616966,5.37999786 L15.1616966,0.892539393 C14.493547,0.839639833 13.8035474,0.801372066 13.0916978,0.801372066 Z M6.94944621,10.9656984 L6.94944621,15.3799979 C6.94944621,15.8290814 7.01614618,16.1633616 7.14839611,16.3727088 C7.29238586,16.5859242 7.50929016,16.7419476 7.76019577,16.8127881 C8.34262274,16.9649567 8.93407638,17.0818573 9.53119481,17.1628256 L9.92794459,17.2258549 L18.5149899,18.6957873 C18.4712899,17.1740808 16.9946907,15.4171401 16.1160912,14.6112659 C13.9563924,12.6280952 10.8214941,11.3900204 6.94944621,10.9656984 Z M15.9494462,0.96569836 L15.9494462,5.37999786 C15.9494462,5.82908136 16.0161462,6.16336156 16.1483961,6.37270876 C16.2923859,6.58592417 16.5092902,6.74194763 16.7601958,6.81278808 C17.3426227,6.96495665 17.9340764,7.08185732 18.5311948,7.1628256 L18.9279446,7.22585486 L27.5149899,8.69578733 C27.4712899,7.17408082 25.9946907,5.4171401 25.1160912,4.61126594 C22.9563924,2.62809519 19.8214941,1.39002037 15.9494462,0.96569836 Z" id="Combined-Shape-Copy" fill="#FFFFFF" fill-rule="nonzero"></path>
    </g>
</svg>