<svg width="264" height="50" xmlns="http://www.w3.org/2000/svg" xmlns:xlink="http://www.w3.org/1999/xlink"><defs><path id="a" d="M0 0h262.334v45.961H0z"/></defs><g transform="translate(1 2)" fill="none" fill-rule="evenodd"><mask id="b" fill="#fff"><use xlink:href="#a"/></mask><path d="M262.334 20.644c0 1.497-.182 3.312-.454 4.265-1.18-.136-2.36-.182-3.766-.182-1.225 0-2.45.091-3.675.273v19.419h-4.99V21.733c2.131-.726 5.716-1.27 8.529-1.27 1.542 0 3.267.045 4.356.181m-33.486 9.891h11.253c0-3.72-1.997-5.898-5.445-5.898-3.539 0-5.4 2.041-5.808 5.898m16.016 4.174H228.94c.635 4.038 2.995 5.99 7.441 5.99 2.723 0 5.49-.59 7.985-1.725a67.577 67.577 0 0 1-.77 4.537c-2.27 1.044-4.674 1.452-7.35 1.452-8.35 0-12.387-4.628-12.387-12.386 0-6.76 3.13-12.114 11.07-12.114 7.123 0 10.209 4.673 10.209 10.39 0 1.407-.09 2.54-.273 3.856m-30.036 4.446V25.181c-1.316-.272-2.677-.454-3.993-.454-4.945 0-7.305 3.086-7.305 8.258 0 4.628 1.86 7.895 6.307 7.895 1.996 0 3.63-.68 4.99-1.725m4.946-26.496v31.76h-4.582l-.272-2.904c-1.27 2.133-3.222 3.448-6.488 3.448-5.99 0-9.982-4.356-9.982-11.978 0-7.985 4.265-12.522 12.658-12.522 1.316 0 2.541.136 3.72.363v-7.487c1.544-.544 3.313-.68 4.946-.68m-25.318 16.515v15.245h-4.99V30.036c0-3.584-1.18-5.309-6.171-5.309-1.18 0-2.587.137-3.948.364v19.328h-4.99V21.733c3.175-.771 6.67-1.27 9.074-1.27 8.348 0 11.025 3.22 11.025 8.711m-30.536 10.072V25c-1.043-.182-2.178-.273-3.584-.273-5.172 0-7.577 3.177-7.577 8.258 0 4.628 1.86 7.895 6.306 7.895 1.951 0 3.54-.635 4.855-1.634m4.991-17.513v22.686h-4.583l-.272-2.722c-1.27 1.996-3.221 3.266-6.397 3.266-5.99 0-9.982-4.356-9.982-11.978 0-7.985 4.265-12.522 12.659-12.522 3.266 0 5.943.363 8.575 1.27m-26.77 18.965c1.452 0 2.813-.272 3.902-.68-.136 1.36-.318 2.904-.59 4.219-1.361.545-2.813.726-4.22.726-4.854 0-7.94-2.223-7.94-7.759v-23.82c1.543-.498 3.449-.725 4.991-.725v8.575h7.895c-.09 1.543-.227 2.95-.454 4.265h-7.44v11.116c0 2.949 1.451 4.083 3.856 4.083M128.3 29.174v15.245h-4.99V30.036c0-3.584-1.18-5.309-6.17-5.309-1.18 0-2.587.137-3.948.364v19.328H108.2V21.733c3.176-.771 6.67-1.27 9.074-1.27 8.348 0 11.025 3.22 11.025 8.711M97.765 39.246V25c-1.044-.182-2.178-.273-3.585-.273-5.172 0-7.577 3.177-7.577 8.258 0 4.628 1.86 7.895 6.307 7.895 1.95 0 3.539-.635 4.855-1.634m4.99-17.513v22.686h-4.582l-.272-2.722c-1.27 1.996-3.222 3.266-6.398 3.266-5.989 0-9.981-4.356-9.981-11.978 0-7.985 4.264-12.522 12.658-12.522 3.267 0 5.944.363 8.575 1.27M57.43 43.42c.09-1.86.362-3.13.862-4.582 2.54 1.18 5.807 1.77 8.303 1.77 4.219 0 6.578-1.362 6.578-4.039 0-2.631-1.724-3.856-5.989-5.716l-2.314-.998c-4.264-1.86-7.168-4.265-7.168-9.075 0-5.172 3.584-8.484 10.934-8.484 2.95 0 5.717.408 8.303 1.316-.136 1.814-.453 3.221-.907 4.537-2.45-.908-5.354-1.316-7.441-1.316-3.947 0-5.762 1.543-5.762 3.947 0 2.36 1.77 3.72 4.945 5.082l2.45 1.043c5.762 2.45 8.167 5.037 8.167 9.438 0 5.217-3.947 8.802-11.66 8.802-3.72 0-6.76-.545-9.301-1.725M34.624 21.052a10.474 10.474 0 0 0-1.393-4.784l-7.564-13.1A10.477 10.477 0 0 1 24.47 0l-.315.548a10.48 10.48 0 0 0 0 10.48l6.05 10.48a10.481 10.481 0 0 1 0 10.48l-.316.547a10.468 10.468 0 0 0-1.196-3.167l-5.54-9.595-3.537-6.126a10.464 10.464 0 0 1-1.196-3.167l-.316.547a10.48 10.48 0 0 0-.019 10.448l6.07 10.513a10.48 10.48 0 0 1 0 10.48l-.317.548a10.464 10.464 0 0 0-1.196-3.168l-7.564-13.1a10.475 10.475 0 0 1-1.392-5.694C5.589 23.169 0 27.66 0 32.86c0 7.235 10.815 13.1 24.155 13.1 13.34 0 24.154-5.865 24.154-13.1 0-5.2-5.588-9.694-13.685-11.81" fill="#FFF" mask="url(#b)"/></g></svg>